HIERARCHY
ROOT SpineBase
{
  OFFSET 0.000000 0.000000 0.000000
  CHANNELS 6 Xposition Yposition Zposition Zrotation Xrotation Yrotation
  JOINT SpineMid
  {
    OFFSET 0.000000 26.983103 0.000000
    CHANNELS 3 Zrotation Xrotation Yrotation
    JOINT SpineShoulder
    {
      OFFSET -0.095583 20.086451 -0.686439
      CHANNELS 3 Zrotation Xrotation Yrotation
      JOINT Neck
      {
        OFFSET -0.071596 6.663977 -0.518836
        CHANNELS 3 Zrotation Xrotation Yrotation
        JOINT Head
        {
          OFFSET -1.941096 12.089641 1.806560
          CHANNELS 3 Zrotation Xrotation Yrotation
          End Site
          {
            OFFSET 0 0 0
          }
        }
      }
      JOINT ShoulderLeft
      {
        OFFSET -12.523399 -3.913378 4.375189
        CHANNELS 3 Zrotation Xrotation Yrotation
        JOINT ElbowLeft
        {
          OFFSET -0.975900 -25.203905 1.551998
          CHANNELS 3 Zrotation Xrotation Yrotation
          JOINT WristLeft
          {
            OFFSET -0.107634 -20.809070 -6.718634
            CHANNELS 3 Zrotation Xrotation Yrotation
            JOINT HandLeft
            {
              OFFSET 0.166309 -5.563838 -0.354853
              CHANNELS 3 Zrotation Xrotation Yrotation
              JOINT HandTipLeft
              {
                OFFSET -0.479120 -6.531083 0.586959
                CHANNELS 3 Zrotation Xrotation Yrotation
                End Site
                {
                  OFFSET 0 0 0
                }
              }
              JOINT ThumbLeft
              {
                OFFSET 3.340349 -0.602704 -2.600225
                CHANNELS 3 Zrotation Xrotation Yrotation
                End Site
                {
                  OFFSET 0 0 0
                }
              }
            }
          }
        }
      }
      JOINT ShoulderRight
      {
        OFFSET 11.288418 -3.500869 -8.176470
        CHANNELS 3 Zrotation Xrotation Yrotation
        JOINT ElbowRight
        {
          OFFSET 4.146531 -22.065785 -2.746193
          CHANNELS 3 Zrotation Xrotation Yrotation
          JOINT WristRight
          {
            OFFSET -1.757761 -19.646271 -6.635645
            CHANNELS 3 Zrotation Xrotation Yrotation
            JOINT HandRight
            {
              OFFSET -0.609665 -6.546862 -0.931219
              CHANNELS 3 Zrotation Xrotation Yrotation
              JOINT HandTipRight
              {
                OFFSET -0.718559 -5.535621 -0.572001
                CHANNELS 3 Zrotation Xrotation Yrotation
                End Site
                {
                  OFFSET 0 0 0
                }
              }
              JOINT ThumbRight
              {
                OFFSET 0.547073 -0.791083 -3.065113
                CHANNELS 3 Zrotation Xrotation Yrotation
                End Site
                {
                  OFFSET 0 0 0
                }
              }
            }
          }
        }
      }
    }
  }
  JOINT HipLeft
  {
    OFFSET -5.618917 0.192980 -0.802252
    CHANNELS 3 Zrotation Xrotation Yrotation
    JOINT KneeLeft
    {
      OFFSET 6.392720 -30.542914 3.944353
      CHANNELS 3 Zrotation Xrotation Yrotation
      JOINT AnkleLeft
      {
        OFFSET 7.240536 -31.220191 7.497464
        CHANNELS 3 Zrotation Xrotation Yrotation
        JOINT FootLeft
        {
          OFFSET -4.693151 -2.048575 -11.127950
          CHANNELS 3 Zrotation Xrotation Yrotation
          End Site
          {
            OFFSET 0 0 0
          }
        }
      }
    }
  }
  JOINT HipRight
  {
    OFFSET 4.921456 1.220258 -5.376833
    CHANNELS 3 Zrotation Xrotation Yrotation
    JOINT KneeRight
    {
      OFFSET 9.064946 -26.865190 -1.869570
      CHANNELS 3 Zrotation Xrotation Yrotation
      JOINT AnkleRight
      {
        OFFSET 7.095768 -35.083262 8.466645
        CHANNELS 3 Zrotation Xrotation Yrotation
        JOINT FootRight
        {
          OFFSET -4.036989 -7.034135 -0.012981
          CHANNELS 3 Zrotation Xrotation Yrotation
          End Site
          {
            OFFSET 0 0 0
          }
        }
      }
    }
  }
}
MOTION
Frames: 10
Frame Time: 0.033333
40.184294 67.984326 367.652813 -0.000000 0.000000 23.461111 -0.000000 0.000000 -23.461111 -0.000000 0.000000 0.000000 -0.000000 0.000000 0.000000 0.000000 0.000000 0.000000 -0.000000 0.000000 0.000000 -0.000000 0.000000 0.000000 -0.000000 0.000000 0.000000 -0.000000 0.000000 0.000000 0.000000 0.000000 0.000000 0.000000 0.000000 0.000000 -0.000000 0.000000 0.000000 -0.000000 0.000000 0.000000 -0.000000 0.000000 0.000000 -0.000000 0.000000 0.000000 0.000000 0.000000 0.000000 0.000000 0.000000 0.000000 -0.000000 0.000000 -23.461111 -0.000000 0.000000 0.000000 -0.000000 0.000000 0.000000 0.000000 0.000000 0.000000 -0.000000 0.000000 -23.461111 -0.000000 0.000000 0.000000 -0.000000 0.000000 0.000000 0.000000 0.000000 0.000000
40.145132 67.954283 367.684138 -0.012817 -0.054251 23.288464 0.033221 0.044763 -23.288483 -0.000000 0.000000 0.000000 -0.000000 0.000000 0.000000 0.000000 0.000000 0.000000 -0.000000 0.000000 0.000000 -0.726594 -0.894916 0.234136 6.143528 3.493386 -0.717605 -0.121344 2.843552 0.204272 0.000000 0.000000 0.000000 0.000000 0.000000 0.000000 -0.000000 0.000000 0.000000 -0.000000 0.000000 0.000000 -0.341779 -1.913098 0.221543 0.349367 1.911728 -0.233078 0.000000 0.000000 0.000000 0.000000 0.000000 0.000000 0.033221 0.044763 -23.288483 -0.000000 0.000000 0.000000 3.069367 -6.326912 -3.128864 0.000000 0.000000 0.000000 0.033221 0.044763 -23.288483 -0.000000 0.000000 0.000000 1.395254 -3.641388 2.147209 0.000000 0.000000 0.000000
40.118273 67.933967 367.703181 -0.025008 -0.112292 23.128356 0.067105 0.093444 -23.128435 -0.000000 0.000000 0.000000 -0.000000 0.000000 0.000000 0.000000 0.000000 0.000000 -0.000000 0.000000 0.000000 -1.402624 -1.649334 0.443259 12.229080 7.008274 -1.818452 -1.124024 4.418493 0.223368 0.000000 0.000000 0.000000 0.000000 0.000000 0.000000 -0.000000 0.000000 0.000000 -0.000000 0.000000 0.000000 -0.651661 -3.530061 0.402997 0.852687 2.540360 -0.344267 0.000000 0.000000 0.000000 0.000000 0.000000 0.000000 0.067105 0.093444 -23.128435 -0.000000 0.000000 0.000000 5.885542 -12.920052 -6.007995 0.000000 0.000000 0.000000 0.067105 0.093444 -23.128435 -0.000000 0.000000 0.000000 2.536892 -6.598237 3.982034 0.000000 0.000000 0.000000
40.103717 67.923376 367.709942 -0.036582 -0.174157 22.981129 0.101674 0.146052 -22.981314 -0.000000 0.000000 0.000000 0.964243 -0.104790 -0.159840 0.000000 0.000000 0.000000 -0.000000 0.000000 0.000000 -2.023100 -2.252273 0.629074 17.579869 10.261495 -3.131965 -2.495038 4.789012 0.171232 0.000000 0.000000 0.000000 0.000000 0.000000 0.000000 -0.000000 0.000000 0.000000 0.351002 -0.773573 -0.047091 -1.277505 -4.064270 0.611212 1.595978 3.516624 -0.567665 0.000000 0.000000 0.000000 0.000000 0.000000 0.000000 0.101674 0.146052 -22.981314 -0.000000 0.000000 0.000000 8.118374 -18.741017 -8.294683 0.000000 0.000000 0.000000 0.101674 0.146052 -22.981314 -0.000000 0.000000 0.000000 3.339688 -8.852660 5.430865 0.000000 0.000000 0.000000
40.101464 67.922511 367.704421 -0.047548 -0.239886 22.847072 0.136959 0.202603 -22.847414 -0.000000 0.000000 0.000000 1.397982 -0.269394 -0.248478 0.000000 0.000000 0.000000 0.190976 -1.016849 0.052803 -2.774131 -1.676398 0.789837 21.503818 13.000714 -4.361270 -3.658517 4.215176 0.134716 0.000000 0.000000 0.000000 0.000000 0.000000 0.000000 -0.000000 0.000000 0.000000 0.366143 -0.883263 -0.041939 -1.541827 -4.938702 0.720613 2.551777 4.251275 -0.828441 0.000000 0.000000 0.000000 0.000000 0.000000 0.000000 0.136959 0.202603 -22.847414 -0.000000 0.000000 0.000000 9.533331 -22.719371 -9.737121 0.000000 0.000000 0.000000 0.136959 0.202603 -22.847414 -0.000000 0.000000 0.000000 3.732718 -10.404528 6.435641 0.000000 0.000000 0.000000
40.111513 67.931372 367.686619 -0.057915 -0.309522 22.726416 0.172998 0.263116 -22.726970 -0.000000 0.000000 0.000000 1.887120 -0.499346 -0.353264 0.000000 0.000000 0.000000 0.277828 -1.244701 0.068284 -3.356678 -1.722629 0.942561 23.522193 15.070589 -5.198504 -4.250711 2.962037 0.168994 0.000000 0.000000 0.000000 0.000000 0.000000 0.000000 -0.000000 0.000000 0.000000 0.330371 -0.918757 -0.026812 -1.728289 -5.553023 0.783371 3.744789 4.721351 -1.126416 0.000000 0.000000 0.000000 0.000000 0.000000 0.000000 0.172998 0.263116 -22.726970 -0.000000 0.000000 0.000000 10.019494 -24.135651 -10.210644 0.000000 0.000000 0.000000 0.172998 0.263116 -22.726970 -0.000000 0.000000 0.000000 3.659086 -11.251887 6.952603 0.000000 0.000000 0.000000
40.116108 67.951366 367.669771 -0.117848 -0.420070 22.528473 0.269805 0.342859 -22.529712 -0.000000 0.000000 0.000000 2.529264 -0.732017 -0.478143 0.000000 0.000000 0.000000 0.368640 -1.454719 0.083655 -4.044520 -2.203461 1.119624 24.170016 16.338706 -5.756199 -3.713774 -0.453276 0.880936 0.000000 0.000000 0.000000 0.000000 0.000000 0.000000 -0.000000 0.000000 0.000000 0.325491 -1.077744 -0.010482 -1.214936 -6.108289 0.780703 5.440990 4.914774 -1.514892 0.000000 0.000000 0.000000 0.000000 0.000000 0.000000 0.269805 0.342859 -22.529712 -0.000000 0.000000 0.000000 9.512914 -22.651422 -9.653186 0.000000 0.000000 0.000000 1.104731 0.599743 -22.395702 -0.674109 -0.555547 -0.144147 3.481287 -10.914499 6.720071 0.000000 0.000000 0.000000
40.139555 67.976479 367.625521 -0.130475 -0.493219 22.487570 0.309208 0.405808 -22.489227 -0.000000 0.000000 0.000000 3.109375 -1.090401 -0.608440 0.000000 0.000000 0.000000 0.544985 -1.621455 0.103987 -4.322441 -2.892095 1.127678 21.384958 17.712003 -5.448278 -4.926298 -3.438845 0.613735 0.000000 0.000000 0.000000 0.000000 0.000000 0.000000 -0.000000 0.000000 0.000000 0.578378 -1.258420 -0.076724 -0.618643 -5.870213 0.765520 6.939178 4.341815 -1.730521 0.000000 0.000000 0.000000 0.000000 0.000000 0.000000 0.309208 0.405808 -22.489227 -0.000000 0.000000 0.000000 6.901424 -15.499852 -7.059496 0.000000 0.000000 0.000000 1.112806 0.584437 -22.383918 -0.675043 -0.471122 -0.115028 1.416474 -9.719545 5.746307 0.000000 0.000000 0.000000
40.175888 68.010662 367.548117 -0.143059 -0.530893 22.471955 0.335128 0.435895 -22.473893 -0.000000 0.000000 0.000000 3.656038 -1.502697 -0.737487 0.000000 0.000000 0.000000 0.799551 -1.923154 0.137023 -4.347958 -2.392570 1.057130 16.098532 16.936951 -3.982784 -4.689498 -4.483754 0.075851 0.000000 0.000000 0.000000 0.000000 0.000000 0.000000 0.121951 0.849983 0.143486 0.946106 -2.409320 -0.339318 -0.869964 -5.341993 0.868655 9.222123 3.116338 -1.940058 0.000000 0.000000 0.000000 0.000000 0.000000 0.000000 0.335128 0.435895 -22.473893 -0.000000 0.000000 0.000000 5.897460 -12.975258 -5.819124 0.000000 0.000000 0.000000 0.335128 0.435895 -22.473893 -0.000000 0.000000 0.000000 -0.719597 -6.602044 3.738619 0.000000 0.000000 0.000000
40.216762 68.049258 367.448438 -0.164050 -0.555309 22.496281 0.364050 0.450278 -22.498506 -0.000000 0.000000 0.000000 4.264141 -2.104628 -0.894170 0.000000 0.000000 0.000000 1.044558 -1.980557 0.158961 -4.736484 -0.436033 1.140443 10.314642 14.284769 -2.275457 -2.960848 -5.800246 -0.301166 0.000000 0.000000 0.000000 0.000000 0.000000 0.000000 0.839073 0.876839 0.053802 -0.232518 -1.668046 -0.188138 -1.882852 -5.810940 0.887228 10.411316 2.560450 -2.055681 0.000000 0.000000 0.000000 0.000000 0.000000 0.000000 0.364050 0.450278 -22.498506 -0.000000 0.000000 0.000000 3.790649 -8.047425 -3.439858 0.000000 0.000000 0.000000 0.364050 0.450278 -22.498506 -0.000000 0.000000 0.000000 -2.836725 -2.400490 1.305115 0.000000 0.000000 0.000000
